<svg width="600" height="220" viewBox="0 0 600 220" xmlns="http://www.w3.org/2000/svg"><mask id="satori_om-id"><rect x="0" y="0" width="600" height="220" fill="#fff"/></mask><rect x="0" y="0" width="600" height="220" fill="#ffffff"/><g  ><path fill="#111111" d="M210.8 158Q203.7 158 200.0 154.0Q196.4 150.1 196.4 142.9L196.4 142.9L196.4 81.0L211.0 81.0L211.0 138.8Q211.0 142.7 212.6 144.2Q214.2 145.8 218.1 145.8L218.1 145.8L223.3 145.8L223.3 158L210.8 158ZM272.8 160.2Q256.1 160.2 246.2 153.8Q236.2 147.5 236.2 135.4L236.2 135.4Q236.2 129.1 239.8 124.2Q243.3 119.4 249.2 117.5L249.2 117.5Q243.6 115.1 240.2 110.5Q236.8 105.9 236.8 99.8L236.8 99.8Q236.8 90.3 243.2 84.6Q249.5 78.8 261.7 78.8L261.7 78.8Q265.2 78.8 268.8 79.3Q272.4 79.8 274.6 80.4L274.6 80.4L274.6 91.9Q272.7 91.2 269.7 90.8Q266.8 90.5 264.3 90.5L264.3 90.5Q258.1 90.5 254.9 93.1Q251.7 95.8 251.7 100.7L251.7 100.7Q251.7 105.9 255.1 108.6Q258.6 111.3 265.3 111.3L265.3 111.3L274.6 111.3L274.6 123.4L265.5 123.4Q258.6 123.4 254.8 126.4Q251.1 129.3 251.1 135.4L251.1 135.4Q251.1 141.7 256.9 145.2Q262.7 148.6 272.8 148.6L272.8 148.6Q296.6 148.6 296.6 128.5L296.6 128.5L296.6 81.0L311.3 81.0L311.3 128.2Q311.3 136.3 307.5 143.5Q303.8 150.8 295.2 155.5Q286.6 160.2 272.8 160.2L272.8 160.2ZM248.9 69.6L248.9 59.6L311.1 59.6L311.1 69.6L248.9 69.6ZM280.3 69.6L280.3 60.5Q280.3 58.8 279.7 58.1Q279.0 57.3 277.3 57.3L277.3 57.3L270.8 57.3L270.8 47.0L281.6 47.0Q286.2 47.0 288.3 49.2Q290.4 51.4 290.4 54.8L290.4 54.8L290.4 59.8L319.9 59.8L319.9 69.6L280.3 69.6ZM371.9 160.2Q364.0 160.2 356.8 157.0Q349.7 153.8 344.1 147.6L344.1 147.6L344.1 158L330.0 158L330.0 81.0L344.7 81.0L344.7 135.4Q353.2 148.6 368.0 148.6L368.0 148.6Q377.4 148.6 382.2 144.2Q387.0 139.9 387.0 131.2L387.0 131.2L387.0 81.0L401.7 81.0L401.7 131.8Q401.7 144.3 393.8 152.2Q385.9 160.2 371.9 160.2L371.9 160.2Z "/></g></svg>