<svg width="600" height="220" viewBox="0 0 600 220" xmlns="http://www.w3.org/2000/svg"><mask id="satori_om-id"><rect x="0" y="0" width="600" height="220" fill="#fff"/></mask><rect x="0" y="0" width="600" height="220" fill="#ffffff"/><g  ><path fill="#111111" d="M245.4 160.2Q232.6 160.2 225.0 153.8Q217.5 147.3 217.5 135.5L217.5 135.5Q217.5 123.9 225.9 117.0Q234.3 110.0 248.7 110.0L248.7 110.0Q263.0 110.0 274.4 115.4L274.4 115.4L274.4 109.5Q274.4 99.5 269.0 95Q263.6 90.5 251.0 90.5L251.0 90.5Q244.1 90.5 237.5 91.8Q230.9 93.1 226.0 95.4L226.0 95.4L226.0 83.8Q230.4 81.7 238.1 80.2Q245.8 78.8 253.2 78.8L253.2 78.8Q271.2 78.8 280.1 87.0Q289.0 95.2 289.0 109.2L289.0 109.2L289.0 158L274.4 158L274.4 127.0Q263.8 121.7 250.3 121.7L250.3 121.7Q241.0 121.7 236.6 125.2Q232.2 128.6 232.2 135.5L232.2 135.5Q232.2 148.6 249.0 148.6L249.0 148.6Q254.2 148.6 258.1 147.2L258.1 147.2L258.1 158.6Q252.9 160.2 245.4 160.2L245.4 160.2ZM226.7 69.6L226.7 59.6L288.9 59.6L288.9 69.6L226.7 69.6ZM258.1 69.6L258.1 60.5Q258.1 58.8 257.4 58.1Q256.8 57.3 255.1 57.3L255.1 57.3L248.6 57.3L248.6 47.0L259.4 47.0Q264.0 47.0 266.1 49.2Q268.2 51.4 268.2 54.8L268.2 54.8L268.2 59.8L297.7 59.8L297.7 69.6L258.1 69.6ZM337.6 160.2Q323.5 160.2 315.6 152.2Q307.8 144.3 307.8 131.8L307.8 131.8L307.8 81.0L322.5 81.0L322.5 131.2Q322.5 139.9 327.3 144.2Q332.1 148.6 341.5 148.6L341.5 148.6Q356.3 148.6 364.8 135.4L364.8 135.4L364.8 81.0L379.5 81.0L379.5 158L365.2 158L365.2 147.6Q354.4 160.2 337.6 160.2L337.6 160.2Z "/></g></svg>