<svg width="600" height="220" viewBox="0 0 600 220" xmlns="http://www.w3.org/2000/svg"><mask id="satori_om-id"><rect x="0" y="0" width="600" height="220" fill="#fff"/></mask><rect x="0" y="0" width="600" height="220" fill="#ffffff"/><g  ><path fill="#111111" d="M220.5 155.4L220.5 155.4Q216.6 155.4 213.0 154.1Q209.4 152.8 207.1 149.5Q204.8 146.2 204.8 140.3L204.8 140.3L204.8 75.1L217.6 75.1L217.6 138.7Q217.6 142.0 219.1 143.5Q220.5 144.9 223.7 144.9L223.7 144.9Q225.0 144.9 226.4 144.6Q227.9 144.4 229.2 143.9L229.2 143.9L230.9 153.3Q228.2 154.6 225.6 155.0Q223.0 155.4 220.5 155.4ZM271.2 155.3L271.2 155.3Q253.8 155.3 246.6 148.7Q239.4 142.0 239.4 130.8L239.4 130.8Q239.4 124.2 241.3 120.2Q243.3 116.3 246.2 114.4Q249.2 112.5 252.3 112.0L252.3 112.0L252.3 111.4Q249.5 110.5 246.3 108.5Q243.1 106.5 241.0 102.9Q239.0 99.3 239.0 93.8L239.0 93.8Q239.0 88.8 241.3 84.3Q243.6 79.8 248.7 77.0Q253.9 74.1 262.4 74.1L262.4 74.1Q265.9 74.1 269.6 74.6Q273.4 75.1 275.4 76.2L275.4 76.2L273.1 86.2Q271.5 85.6 269.0 85.1Q266.5 84.6 263.7 84.6L263.7 84.6Q257.7 84.6 254.8 87.4Q251.9 90.2 251.9 94.8L251.9 94.8Q251.9 99.9 254.4 102.4Q257.0 105.0 260.9 106.0Q264.9 106.9 269.2 106.9L269.2 106.9L271.9 106.9L271.9 116.3L269.2 116.3Q260.6 116.3 256.4 119.4Q252.3 122.5 252.3 129.7L252.3 129.7Q252.3 133.8 254.0 137.3Q255.7 140.8 259.8 142.8Q263.9 144.8 271.2 144.8L271.2 144.8Q282.2 144.8 286.2 140.2Q290.2 135.7 290.2 127.8L290.2 127.8L290.2 75.1L303.0 75.1L303.0 126.9Q303.0 142.0 295.3 148.7Q287.6 155.3 271.2 155.3ZM301.9 62.6L240.7 62.6L240.7 56.9L251.2 52.3L301.9 52.3L301.9 62.6ZM306.3 62.6L261.7 62.6L261.7 56.2Q264.6 55.6 267.6 54.6Q270.6 53.5 272.6 51.7Q274.7 49.9 274.7 47.3L274.7 47.3Q274.7 45.6 273.6 44.3Q272.5 43.1 270.2 43.1L270.2 43.1Q268.8 43.1 267.2 43.7Q265.7 44.3 264.6 44.7L264.6 44.7L261.7 36.8Q264.6 34.5 268.1 33.8Q271.6 33.0 273.8 33.0L273.8 33.0Q279.6 33.0 282.8 36.2Q286.0 39.4 286.0 44.3L286.0 44.3Q286.0 46.7 285.2 48.8Q284.3 50.9 283.0 52.5L283.0 52.5L306.3 52.5L306.3 62.6ZM364.4 155.4L364.4 155.4Q355.2 155.4 348.5 151.8Q341.8 148.1 339.3 141.5L339.3 141.5L338.7 141.5L338.0 154L327.5 154L327.5 75.1L340.3 75.1L340.3 120.7Q340.3 131.7 345.9 138.2Q351.6 144.6 361.8 144.6L361.8 144.6Q378.6 144.6 378.6 127.1L378.6 127.1L378.6 75.1L391.4 75.1L391.4 127.9Q391.4 142.2 384.3 148.8Q377.2 155.4 364.4 155.4Z "/></g></svg>