<svg width="600" height="220" viewBox="0 0 600 220" xmlns="http://www.w3.org/2000/svg"><mask id="satori_om-id"><rect x="0" y="0" width="600" height="220" fill="#fff"/></mask><rect x="0" y="0" width="600" height="220" fill="#ffffff"/><g  ><path fill="#111111" d="M247.1 155.4L247.1 155.4Q234.4 155.4 227.8 149.6Q221.1 143.8 221.1 132.8L221.1 132.8Q221.1 120.9 229.8 114.4Q238.5 107.9 258.1 106.8L258.1 106.8L271.9 105.9L271.9 101.4Q271.9 92.1 267.6 88.1Q263.4 84.2 253.5 84.2L253.5 84.2Q246.3 84.2 239.7 86.1Q233.2 88.0 227.2 91.5L227.2 91.5L227.2 79.6Q231.4 77.4 238.6 75.5Q245.7 73.6 254.6 73.6L254.6 73.6Q269.7 73.6 277.1 80.2Q284.6 86.8 284.6 100.7L284.6 100.7L284.6 154L271.9 154L271.9 116.6L259.8 117.4Q245.1 118.4 239.6 122.0Q234.0 125.6 234.0 132.5L234.0 132.5Q234.0 139.0 238.1 142.0Q242.2 145.1 249.6 145.1L249.6 145.1Q254.3 145.1 257.9 143.8L257.9 143.8L259.9 153.4Q257.2 154.4 254.0 154.9Q250.7 155.4 247.1 155.4ZM283.4 62.6L222.2 62.6L222.2 56.9L232.7 52.3L283.4 52.3L283.4 62.6ZM287.9 62.6L243.2 62.6L243.2 56.2Q246.1 55.6 249.1 54.6Q252.2 53.5 254.2 51.7Q256.2 49.9 256.2 47.3L256.2 47.3Q256.2 45.6 255.1 44.3Q254.0 43.1 251.7 43.1L251.7 43.1Q250.3 43.1 248.8 43.7Q247.3 44.3 246.1 44.7L246.1 44.7L243.2 36.8Q246.1 34.5 249.6 33.8Q253.2 33.0 255.3 33.0L255.3 33.0Q261.1 33.0 264.3 36.2Q267.6 39.4 267.6 44.3L267.6 44.3Q267.6 46.7 266.7 48.8Q265.8 50.9 264.5 52.5L264.5 52.5L287.9 52.5L287.9 62.6ZM335.1 155.4L335.1 155.4Q322.4 155.4 315.2 148.8Q307.9 142.2 307.9 127.8L307.9 127.8L307.9 75.1L320.7 75.1L320.7 127.1Q320.7 144.6 337.8 144.6L337.8 144.6Q347.9 144.6 353.5 138.2Q359.0 131.7 359.0 120.7L359.0 120.7L359.0 75.1L371.8 75.1L371.8 154L361.2 154L360.6 142.3L359.9 142.3Q357.3 148.1 350.9 151.8Q344.5 155.4 335.1 155.4Z "/></g></svg>